<?xml version="1.0" encoding="utf-8"?>
<!-- Generator: Adobe Illustrator 16.0.0, SVG Export Plug-In . SVG Version: 6.00 Build 0)  -->
<!DOCTYPE svg PUBLIC "-//W3C//DTD SVG 1.1//EN" "http://www.w3.org/Graphics/SVG/1.1/DTD/svg11.dtd">
<svg version="1.1" id="Layer_1" xmlns="http://www.w3.org/2000/svg" xmlns:xlink="http://www.w3.org/1999/xlink" x="0px" y="0px"
	 width="406.03px" height="106.132px" viewBox="0 0 406.03 106.132" enable-background="new 0 0 406.03 106.132"
	 xml:space="preserve">
<g>
	<path fill="#99999A" d="M85.301,33.728c3.123,0,6.152,0.285,9.045,0.813l6.884-7.173c-4.814-1.666-10.218-2.602-15.929-2.602
		c-9.711,0-18.527,2.708-25.064,7.115l5.998,5.685C71.781,35.137,78.309,33.728,85.301,33.728L85.301,33.728z"/>
	<path fill="#FFFFFF" d="M85.301,24.767c5.711,0,11.115,0.936,15.929,2.602l7.483-7.792c-6.983-2.751-14.947-4.315-23.412-4.315
		c-12.615,0-24.129,3.472-32.914,9.183l7.85,7.438C66.773,27.475,75.59,24.767,85.301,24.767L85.301,24.767z"/>
	<path fill="#99999A" d="M49.365,55.252c0.629-2.571,1.793-5.012,3.396-7.266l-3.014-3.048c-0.602,1.875-0.932,3.828-0.932,5.834
		C48.816,52.3,49.011,53.796,49.365,55.252L49.365,55.252z"/>
	<path fill="#99999A" d="M27.09,72.109l-1.266,6.563l12.594-5.422c-0.795-1.672-0.95-3.85-1.412-5.625L27.09,72.109L27.09,72.109z"
		/>
	<polygon fill="#99999A" points="18.228,0.751 0,100.563 8.62,101.266 26.668,0 18.228,0.751 	"/>
	<path fill="#ED1C24" d="M79.52,58.188v-8.073L66.281,37.567l-5.998-5.685l-7.85-7.438L26.64,0L8.584,101.266L46.787,84.47
		c-3.805-3.36-6.502-6.942-8.502-11.161l-12.438,5.334l1.248-6.527l8.059-42l0.674-3.525l6.652,6.702l8.559,8.621l3.678,3.705
		l15.111,13.016l-14.672,6.721c3.813,3.809,8.322,7.159,14.408,9.053l18.301-8.219L79.52,58.188L79.52,58.188z"/>
	<path fill="#99999A" d="M121.234,55.252c0.356-1.456,0.553-2.952,0.553-4.48c0-4.509-1.65-8.763-4.484-12.459l-4.344,4.5
		C117.127,46.285,120.094,50.562,121.234,55.252L121.234,55.252z"/>
	<path fill="#99999A" d="M129.402,97.975l-10.297-9.896c-1.644,1.126-3.408,2.167-5.25,3.125l15.547,14.928l47.944-49.935
		l-0.053-8.087L129.402,97.975L129.402,97.975z"/>
	<path fill="#99999A" d="M94.467,64.434l-8.479-8.145l-6.492-6.195l-0.023,8.093l9.125,8.764l8.723,8.375
		c2.213-0.551,4.333-1.247,6.33-2.076L94.467,64.434L94.467,64.434z"/>
	<polygon fill="#99999A" points="127.803,19.275 120.979,26.38 113.447,34.226 108.318,39.569 98.592,49.697 102.666,53.607 
		113.014,42.833 117.342,38.327 125.266,30.074 127.803,27.43 154.168,52.704 158.246,48.469 127.803,19.275 	"/>
	<path fill="#FFFFFF" d="M125.266,30.074l-7.924,8.252c2.834,3.696,4.445,7.937,4.445,12.445c0,1.528-0.197,3.024-0.553,4.48
		c-0.925,3.795-3.004,7.307-5.968,10.348c-3.04,3.113-7.004,5.73-11.616,7.65c-1.996,0.829-4.117,1.525-6.33,2.076
		c-3.764,0.934-7.807,1.449-12.02,1.449c-5.188,0-10.115-0.771-14.582-2.164c-6.084-1.896-11.301-4.937-15.114-8.746
		c-1.392-1.387-2.593-2.878-3.584-4.453c-1.222-1.939-2.126-4.002-2.655-6.16c-0.354-1.456-0.549-2.952-0.549-4.48
		c0-2.007,0.33-3.959,0.932-5.834l-9.105-9.216c-3.332,4.944-5.215,10.515-5.215,16.415c0,1.52,0.139,3.014,0.381,4.483
		c0.584,3.566,1.861,6.969,3.723,10.146c0.932,1.597,2.017,3.133,3.234,4.604c3.203,3.864,7.335,7.254,12.172,10.008
		c8.408,4.783,18.932,7.633,30.363,7.633c7.998,0,15.55-1.391,22.248-3.863c2.031-0.75,3.982-1.6,5.843-2.545
		c4.321-2.182,8.149-4.853,11.346-7.906c5.366-5.123,8.95-11.316,10.057-18.076c0.242-1.469,0.379-2.963,0.379-4.483
		C135.174,43.863,131.49,36.226,125.266,30.074L125.266,30.074z"/>
	<path fill="#0066B3" d="M94.424,64.496l9.15,8.785c4.61-1.919,8.608-4.508,11.649-7.621l-12.545-12.047l-4.074-3.911l9.671-10.072
		l5.129-5.343l7.53-7.846l6.826-7.106l30.371,29.157l-4.078,4.246l-24.881,25.908c-2.619,3.592-6.018,6.777-10.035,9.525
		l10.22,9.863l47.946-49.93L127.369,0.162L108.67,19.638l-7.484,7.792l-6.885,7.173L79.496,50.094L94.424,64.496L94.424,64.496z"/>
	<path fill="#99999A" d="M52.227,61.66c0,0,0.237,0.393,0.267,0.438c0.731,1.165,1.738,2.231,2.69,3.294L70.1,58.5L35.824,26.579
		l-0.938,4.938l26.895,26.624L52.227,61.66L52.227,61.66z"/>
	<path fill="#99999A" d="M135.174,52.136c0,1.52-0.137,3.014-0.379,4.483c-1.107,6.76-4.691,12.953-10.057,18.076
		c-3.197,3.054-7.025,5.725-11.346,7.906c-1.861,0.945-3.812,1.795-5.843,2.545c-6.698,2.473-14.25,3.863-22.248,3.863
		c-11.432,0-21.955-2.85-30.363-7.633c-4.837-2.754-8.969-6.144-12.172-10.008c-1.218-1.471-2.303-3.007-3.234-4.604
		c-1.861-3.178-3.139-6.58-3.723-10.146c-0.242-1.469-0.381-2.963-0.381-4.483c0-0.477,0.033-0.949,0.059-1.419
		c-0.005-0.026-0.014-0.061-0.016-0.085c-0.242,1.47-0.043,8.95-0.043,10.467c0,2.406,0.32,4.754,0.917,7.033
		c0.462,1.773,1.099,3.502,1.894,5.176c2,4.219,5.007,8.091,8.813,11.451c9.152,8.074,22.889,13.215,38.25,13.215
		c10.662,0,20.529-2.48,28.637-6.693c1.841-0.956,3.593-2,5.238-3.127c4.017-2.748,7.422-5.979,10.041-9.57
		c3.799-5.199,5.957-11.154,5.957-17.484c0-1.334,0.115-7.66-0.014-10.172C135.139,50.583,135.174,51.701,135.174,52.136
		L135.174,52.136z"/>
	<polygon points="189.246,24.157 228.938,24.157 225.2,39.441 206.177,39.441 204.295,47.471 224.141,47.471 220.686,61.633 
		201.097,61.633 196.394,81.752 175.89,81.752 189.246,24.157 	"/>
	<polygon points="234.333,24.157 254.838,24.157 241.481,81.752 220.978,81.752 234.333,24.157 	"/>
	<path d="M275.345,51.617c6.584,0,11.192-3.887,11.192-9.412c0-2.937-2.164-4.404-6.396-4.404c-1.224,0-1.881,0.086-3.198,0.346
		l-3.104,13.297C274.498,51.53,274.593,51.617,275.345,51.617L275.345,51.617z M260.201,24.502l1.317-0.173
		c6.584-0.777,14.767-1.295,19.281-1.295c7.523,0,13.355,0.863,17.776,2.676c5.644,2.332,9.03,7.427,9.03,13.558
		c0,5.267-1.788,10.275-5.174,14.162c-2.916,3.367-5.549,5.008-11.005,6.648l-1.317,0.432c0.565,0.432,0.753,0.605,1.036,0.863
		c1.598,1.814,6.395,11.141,10.439,20.379h-22.573c-2.915-8.203-3.763-10.361-7.618-19.688l-4.516,19.688H246.94L260.201,24.502
		L260.201,24.502z"/>
	<polygon points="356.28,24.157 406.03,24.157 402.556,40.83 387.789,40.83 378.008,81.752 357.503,81.752 367.285,40.83 
		351.28,40.83 356.28,24.157 	"/>
	<path d="M387.469,76.295c0.443,0,0.695-0.213,0.695-0.619c0-0.387-0.231-0.6-0.677-0.6c-0.096,0-0.116,0-0.213,0.02v1.18
		C387.353,76.295,387.392,76.295,387.469,76.295L387.469,76.295z M385.671,73.898c0.252-0.02,0.289-0.039,0.793-0.078
		c0.502-0.039,0.715-0.059,0.928-0.059c1.643,0,2.455,0.639,2.455,1.857c0,0.734-0.31,1.178-0.967,1.43l-0.077,0.02
		c0.057,0.039,0.077,0.059,0.097,0.096c0.173,0.156,0.753,1.025,1.237,1.818h-1.875c-0.388-0.715-0.503-0.908-0.987-1.721v1.721
		h-1.604V73.898L385.671,73.898z M387.604,80.838c2.435,0,4.388-1.953,4.388-4.369c0-2.436-1.953-4.389-4.388-4.389
		c-2.417,0-4.37,1.953-4.37,4.369C383.234,78.904,385.168,80.838,387.604,80.838L387.604,80.838z M387.604,71.461
		c2.763,0,5.006,2.225,5.006,4.988c0,2.785-2.223,5.008-5.006,5.008c-2.804,0-4.989-2.186-4.989-5.008
		C382.615,73.666,384.819,71.461,387.604,71.461L387.604,71.461z"/>
	<path d="M303.604,80.287c5.764,1.713,12.068,2.674,17.958,2.674c7.995,0,14.108-1.813,19.375-5.613
		c5.831-4.145,9.593-10.533,9.593-16.318c0-3.887-1.691-7.428-4.702-9.932c-2.351-1.898-4.797-3.367-9.781-5.698l-4.045-1.899
		c-1.316-0.691-1.976-1.382-1.976-2.159c0-2.072,2.634-3.626,6.208-3.626c2.674,0,5.861,0.777,11.951,2.769l4.203-15.591
		c-4.556-1.237-8.992-1.857-13.428-1.857c-16.74,0-29.627,9.152-29.627,20.982c0,6.217,4.14,10.622,14.484,15.458
		c4.891,2.244,5.739,2.85,5.739,4.402c0,2.332-2.54,3.801-6.679,3.801c-3.669,0-8.37-1.123-14.768-3.455l-0.007,0.002
		L303.604,80.287L303.604,80.287z"/>
</g>
</svg>
