<?xml version="1.0" encoding="utf-8"?>
<!-- Generator: Adobe Illustrator 16.0.0, SVG Export Plug-In . SVG Version: 6.00 Build 0)  -->
<!DOCTYPE svg PUBLIC "-//W3C//DTD SVG 1.1//EN" "http://www.w3.org/Graphics/SVG/1.1/DTD/svg11.dtd">
<svg version="1.1"
	 id="svg2" xmlns:dc="http://purl.org/dc/elements/1.1/" xmlns:cc="http://creativecommons.org/ns#" xmlns:rdf="http://www.w3.org/1999/02/22-rdf-syntax-ns#" xmlns:svg="http://www.w3.org/2000/svg" xmlns:sodipodi="http://sodipodi.sourceforge.net/DTD/sodipodi-0.dtd" xmlns:inkscape="http://www.inkscape.org/namespaces/inkscape" inkscape:export-ydpi="348.8913" inkscape:export-xdpi="348.8913" inkscape:export-filename="C:\Users\Austin\Documents\Robostangs\Logo\Original\RobostangsLogo.png" sodipodi:docname="RobostangsLogo.wmf" inkscape:version="0.48.4 r9939"
	 xmlns="http://www.w3.org/2000/svg" xmlns:xlink="http://www.w3.org/1999/xlink" x="0px" y="0px" width="257.963px"
	 height="257.96px" viewBox="0 0 257.963 257.96" enable-background="new 0 0 257.963 257.96" xml:space="preserve">
<g id="g10" transform="matrix(1.25,0,0,-1.25,-190.73125,647.2675)" inkscape:label="logo only with black border" inkscape:groupmode="layer">
	<g id="g12">
		<g>
			<g id="g14">
				<g id="g20" transform="translate(274.103,513.814)">
					<path id="path22" inkscape:connector-curvature="0" fill="#757575" d="M0,0v-19.928l1.513-0.381
						c7.695-1.938,15.051-4.999,21.859-9.098l1.341-0.806c0,0,11.823,11.825,14.126,14.126C41.266-18.515,62.573-39.821,65-42.25
						c-2.305-2.306-14.269-14.268-14.269-14.268l0.785-1.334c3.953-6.72,6.904-13.947,8.768-21.48l0.377-1.519h20.191v-37H60.436
						l-0.391-1.495c-1.943-7.453-4.949-14.589-8.933-21.209l-0.807-1.34l14.459-14.459c-2.428-2.428-23.734-23.734-26.162-26.163
						C36.284-180.2,24-167.917,24-167.917l-1.334-0.784c-6.636-3.903-13.753-6.828-21.154-8.692L0-177.775v-20.594h-37v20.664
						l-1.503,0.386c-7.266,1.863-14.273,4.761-20.83,8.619l-1.334,0.784c0,0-12.284-12.284-14.602-14.6l-26.162,26.162
						l14.459,14.459l-0.806,1.34c-3.984,6.621-6.991,13.759-8.934,21.21l-0.39,1.495h-20.416c0,3.433,0.002,33.566,0.002,36.998
						h20.191l0.377,1.52c1.863,7.532,4.813,14.758,8.766,21.479l0.786,1.334l-14.269,14.268
						c2.428,2.428,23.735,23.735,26.163,26.163c2.302-2.301,14.127-14.126,14.127-14.126l1.34,0.806
						c6.729,4.051,13.974,7.086,21.534,9.023L-37-19.999V0H0z"/>
				</g>
				<g id="g28" transform="translate(274.103,513.814)">
					<path id="path30" inkscape:connector-curvature="0" d="M0,0v-19.928l1.513-0.381c7.695-1.938,15.051-4.999,21.859-9.098
						l1.341-0.806c0,0,11.823,11.825,14.126,14.126C41.266-18.515,62.573-39.821,65-42.25c-2.305-2.306-14.269-14.268-14.269-14.268
						l0.785-1.334c3.953-6.72,6.904-13.947,8.768-21.48l0.377-1.519h20.191v-37H60.436l-0.391-1.495
						c-1.943-7.453-4.949-14.589-8.933-21.209l-0.807-1.34l14.459-14.459c-2.428-2.428-23.734-23.734-26.162-26.163
						C36.284-180.2,24-167.917,24-167.917l-1.334-0.784c-6.636-3.903-13.753-6.828-21.154-8.692L0-177.775v-20.594h-37v20.664
						l-1.503,0.386c-7.266,1.863-14.273,4.761-20.83,8.619l-1.334,0.784c0,0-12.284-12.284-14.602-14.6l-26.162,26.162
						l14.459,14.459l-0.806,1.34c-3.984,6.621-6.991,13.759-8.934,21.21l-0.39,1.495h-20.416c0,3.433,0.002,33.566,0.002,36.998
						h20.191l0.377,1.52c1.863,7.532,4.813,14.758,8.766,21.479l0.786,1.334l-14.269,14.268
						c2.428,2.428,23.735,23.735,26.163,26.163c2.302-2.301,14.127-14.126,14.127-14.126l1.34,0.806
						c6.729,4.051,13.974,7.086,21.534,9.023L-37-19.999V0H0z M2,4h-43v-20.954c-6.884-1.901-13.498-4.673-19.719-8.26
						c-1.826,1.825-14.784,14.784-14.784,14.784l-31.82-31.82c0,0,13.136-13.135,14.95-14.949
						c-3.499-6.205-6.19-12.799-8.024-19.652h-21.12l-0.002-44.999h21.383c1.902-6.772,4.641-13.275,8.164-19.388l-15.116-15.117
						l31.819-31.82c0,0,13.459,13.461,15.281,15.281c6.026-3.398,12.396-6.034,18.988-7.856v-21.619H4v21.536
						c6.725,1.828,13.206,4.492,19.32,7.939c1.821-1.82,15.282-15.281,15.282-15.281l31.818,31.82l-15.117,15.117
						c3.526,6.11,6.264,12.612,8.166,19.386h21.383v45H63.733c-1.834,6.854-4.527,13.447-8.025,19.653
						c1.813,1.813,14.948,14.948,14.948,14.948L38.838-10.43c0,0-12.961-12.96-14.785-14.785C17.745-21.578,11.018-18.778,4-16.871
						V4H2z"/>
				</g>
				<g id="g32" transform="translate(251.8101,494.5488)">
					<path id="path34" inkscape:connector-curvature="0" d="M0,0c0,0,9.367-1.213,17.232-11.262
						c2.443-3.121,13.206-2.033,24.289-9.498c6.649-4.478,13.704-11.805,21.032-27.952c1.805-3.979,21.031-15.47,21.031-33.109
						c0-8.549-8.955-14.79-17.638-14.79c-10.855,0-25.103,18.182-29.175,18.182c-4.07,0-10.448-4.478-18.046-4.478
						c-7.055,0-14.926,10.584-14.926,10.584s4.477-15.875,17.504-27.817c13.027-11.939,28.495-14.654,28.495-31.751
						c0-13.569-16.418-17.911-34.059-17.911c-22.529,0-85.029,8.466-85.029,71.716c0,53.5,42,67,65.75,67
						c0,0,0.705,3.355-0.44,5.358C-5.125-3.724-4.893,1.077,0,0"/>
				</g>
				<g id="g36" transform="translate(320.0938,402.7803)">
					<path id="path38" inkscape:connector-curvature="0" fill="#FF9811" d="M0,0C-5.936,0-12.84-0.277-12.287,6.074
						c-0.215,2.58-13.186,9.266-18.914,12.702c-2.071,1.243-15.902-5.327-24.738-1.737c-8.836,3.589-12.355,10.079-14.334,17.89
						c0,0-9.886-19.079,15.614-45.413c10.495-10.838,26.5-14,26.5-27.5c0-10.666-1.666-13.834-26.833-13.834
						c-30.333,0-76.083,17.75-76.083,66.25c0,48,34.75,60.5,59.5,58.5c0,0,2.577-12.086-9.25-22.75
						c-15.25-13.75-35.807,1.23-43.75-28.25c-3.17-11.767,6.75-22.75,6.75-22.75s0,8.5,3,11c-2.5-30.25,31.5-37.5,46.75-52
						c0,0-0.25,8.5-16,19.25c-11.858,8.094-27,7-25.75,47.75c0,0-8.5-7.25-9.5-16.75c0,0-5.924,15.634,8.5,25.25
						c12.75,8.5,29.75-4.25,44,30.25c0,0,4.75-6.5,15-4.75c0,0-13.677,0.439-15,11.25c-0.417,3.405,0.324,13.401-2.817,15.286
						c-1.199,0.72-0.867,2.557,2.16,1.8c11.042-2.76,10.922-13.441,15.962-15.841c4.61-2.196,21.842-2.281,34.564-24.603
						c0,0,2.76-4.68,9.721-10.561c6.961-5.88,9.72-11.281,11.88-13.201c2.161-1.92,6.241-5.041,6.241-9.961
						C10.887,8.433,7.475,0,0,0"/>
				</g>
				<g id="g40" transform="translate(299.1152,446.4258)">
					<path id="path42" inkscape:connector-curvature="0" d="M0,0c-0.148,0.581-0.635,1.118-1.447,1.596
						c0.017-0.012-0.579,0.64-0.392,1.167c0.124,0.349,0.566,0.581,1.315,0.688l0.013,0.195C-0.571,3.663-6.684,5.345-20.93,6.77
						l-0.07,0.006l-0.03-0.061l-0.545-1.09l0.145-0.015c0.097-0.009,5.566-0.6,11.03-1.962c0.365-1.768,1.342-4.866,3.732-5.118
						c1.81-0.191,2.53,0.735,2.765,1.171c0.169-0.35,0.645-0.979,1.937-0.979c0.513,0,0.759,0.219,0.955,0.395
						c0.177,0.158,0.298,0.253,0.563,0.131c0.066-0.068,0.137-0.135,0.195-0.204l0.089-0.106l0.072,0.12
						C-0.082-0.926,0.139-0.548,0,0"/>
				</g>
				<g id="g44" transform="translate(325.9648,418.3398)">
					<path id="path46" inkscape:connector-curvature="0" d="M0,0c0.384-1.43,0.262-2.706-0.273-2.85
						c-0.534-0.143-1.278,0.9-1.663,2.33C-2.32,0.911-2.197,2.187-1.664,2.33C-1.129,2.474-0.385,1.431,0,0"/>
				</g>
			</g>
		</g>
	</g>
</g>
</svg>
