<?xml version="1.0" standalone="no"?>
<!DOCTYPE svg PUBLIC "-//W3C//DTD SVG 20010904//EN"
 "http://www.w3.org/TR/2001/REC-SVG-20010904/DTD/svg10.dtd">
<svg version="1.0" xmlns="http://www.w3.org/2000/svg"
 width="16.000000pt" height="16.000000pt" viewBox="0 0 16.000000 16.000000"
 preserveAspectRatio="xMidYMid meet">
<metadata>
Created by potrace 1.11, written by Peter Selinger 2001-2013
</metadata>
<g transform="translate(0.000000,16.000000) scale(0.002286,-0.002286)"
fill="#000000" stroke="none">
<path d="M1596 5235 c-31 -6 -58 -9 -61 -7 -5 6 -36 -62 -75 -168 -38 -100
-258 -667 -275 -705 -7 -16 -43 -109 -80 -205 -37 -96 -84 -218 -105 -270 -33
-82 -112 -285 -427 -1095 -151 -390 -217 -533 -272 -597 -35 -39 -70 -60 -162
-96 -41 -16 -64 -97 -73 -252 -5 -83 -1 -91 37 -85 144 21 764 21 925 0 47 -6
45 -11 43 88 -2 79 -8 121 -26 181 -21 72 -26 77 -86 83 -30 2 -77 15 -105 28
-41 18 -54 30 -63 56 -17 55 -4 140 47 289 44 128 124 334 133 344 10 11 109
14 744 22 l460 6 117 -273 c176 -415 178 -425 68 -454 -30 -8 -76 -17 -101
-20 -45 -6 -48 -8 -68 -54 -22 -53 -30 -104 -35 -219 l-2 -74 310 8 c404 9
428 9 707 -1 l236 -8 -3 74 c-3 93 -11 150 -30 216 -15 51 -16 52 -58 58 -134
21 -173 82 -466 755 -94 217 -180 413 -190 435 -10 22 -46 105 -80 185 -34 80
-70 163 -80 185 -29 64 -471 1078 -480 1100 -4 11 -20 47 -35 80 -15 33 -56
125 -90 205 -35 80 -68 158 -76 173 -12 27 -14 28 -90 25 -43 -1 -103 -7 -133
-13z m213 -1530 c90 -209 174 -404 187 -434 13 -30 22 -56 20 -58 -7 -8 -896
-8 -896 -1 0 8 37 113 50 143 19 41 270 699 300 785 27 76 44 123 60 165 11
29 12 27 64 -95 29 -69 126 -296 215 -505z"/>
<path d="M3677 5233 c-18 -29 17 -311 41 -335 4 -4 34 -9 67 -12 86 -8 157
-31 188 -63 15 -17 33 -54 44 -93 16 -60 17 -150 18 -1210 0 -1209 -1 -1223
-46 -1311 -34 -68 -91 -93 -224 -102 l-50 -4 -18 -54 c-12 -35 -21 -96 -24
-171 -6 -128 -9 -121 52 -119 354 7 674 13 1035 16 245 2 465 7 490 9 213 24
264 32 410 68 335 81 591 219 805 433 319 319 468 738 467 1310 0 146 -3 211
-18 314 -35 262 -110 466 -244 660 -143 207 -297 336 -545 455 -112 54 -273
110 -375 130 -14 3 -36 7 -50 10 -49 11 -76 15 -120 21 -25 4 -56 8 -70 10
-14 2 -47 6 -75 9 -27 4 -68 9 -90 13 -22 3 -377 7 -790 8 -412 1 -778 5 -812
9 -34 4 -64 3 -66 -1z m1458 -337 c538 -78 879 -327 1055 -772 71 -179 102
-370 101 -639 -1 -516 -121 -844 -404 -1101 -73 -66 -267 -164 -373 -189 -10
-2 -37 -9 -59 -14 -53 -13 -93 -21 -135 -27 -19 -2 -46 -7 -60 -10 -14 -3
-104 -7 -200 -9 -259 -4 -347 20 -388 108 -11 23 -23 62 -27 87 -5 25 -9 607
-10 1293 -2 1201 -1 1248 17 1258 10 5 18 8 18 6 0 -2 30 1 68 8 72 12 315 13
397 1z"/>
</g>
</svg>
